<?xml version="1.0" encoding="utf-8"?>
<!-- Generator: Adobe Illustrator 23.0.1, SVG Export Plug-In . SVG Version: 6.00 Build 0)  -->
<svg version="1.1" id="Layer_1" xmlns="http://www.w3.org/2000/svg" xmlns:xlink="http://www.w3.org/1999/xlink" x="0px" y="0px"
	 viewBox="0 0 612 792" style="enable-background:new 0 0 612 792;" xml:space="preserve">
<style type="text/css">
	.st0{fill:#A7A9AC;}
	.st1{fill:#BCBEC0;}
	.st2{fill:#E6E7E8;}
	.st3{fill:#F1F2F2;}
</style>
<polygon class="st0" points="-36.26,401.3 122.87,146.43 283.3,403.39 "/>
<polygon class="st0" points="150.35,397.29 341.91,24.7 535.04,400.35 "/>
<polygon class="st1" points="359.04,497.22 518.17,242.35 678.61,499.3 "/>
<polygon class="st1" points="51.22,496.35 210.35,241.48 370.78,498.43 "/>
<polygon class="st2" points="201.87,547.08 361,292.22 521.43,549.17 "/>
<polygon class="st3" points="82.7,573.58 200.63,384.7 319.53,575.13 "/>
<circle class="st3" cx="352" cy="583.39" r="69.13"/>
<circle class="st3" cx="288.52" cy="290.35" r="27.39"/>
<circle class="st3" cx="261.13" cy="294.26" r="23.48"/>
<circle class="st3" cx="235.48" cy="301.65" r="16.09"/>
<ellipse class="st3" cx="172.43" cy="84.11" rx="38.75" ry="36.57"/>
<ellipse class="st3" cx="214" cy="96.07" rx="26.64" ry="25.14"/>
<circle class="st3" cx="455.91" cy="101.22" r="32.17"/>
<circle class="st3" cx="420.26" cy="104.7" r="27.83"/>
<rect x="165.48" y="91.65" class="st3" width="50.43" height="30.43"/>
<rect x="235.04" y="296" class="st3" width="58.26" height="21.74"/>
<rect x="414.17" y="97.74" class="st3" width="48.7" height="34.78"/>
</svg>
